<svg width="1080" height="1080" viewBox="0 0 1080 1080" fill="none" xmlns="http://www.w3.org/2000/svg">
<g clip-path="url(#clip0_3_38)">
<path d="M752.988 400.909C745.507 407.297 734.493 407.297 727.012 400.909L595.036 288.209C580.902 276.139 589.437 253 608.024 253L871.976 253C890.563 253 899.098 276.139 884.964 288.209L752.988 400.909Z" fill="black"/>
<path fill-rule="evenodd" clip-rule="evenodd" d="M56.01 1039.99H1023.99V1069.98H56.01V1039.99Z" fill="black"/>
<path d="M1024 1070H883V215.854C878.277 216.607 873.434 217 868.5 217C817.97 217 777 176.03 777 125.5C777 74.97 817.97 34 868.5 34C873.434 34 878.277 34.3924 883 35.1445V14H1024V1070ZM955 995L1004.84 720.79H902.679L955 995ZM889.5 170C901.833 170 913.66 165.101 922.381 156.381C931.101 147.66 936 135.833 936 123.5C936 111.167 931.101 99.3396 922.381 90.6191C913.66 81.8987 901.833 77 889.5 77V170Z" fill="black"/>
<path d="M782.973 362.572C757.658 354.191 732.342 345.809 707.027 337.428C700.424 357.359 693.553 378.039 686.765 398.44C646.475 518.834 603.003 651.306 564.213 758.256C548.078 790.569 541.574 810.79 529.778 834.533C496.968 904.15 447.234 964.626 384.275 968.52C380.589 968.838 376.874 968.999 373 969C297.286 968.009 244.677 951.925 216.645 877.841C216.548 877.656 216.45 877.471 216.352 877.285C201.791 845.009 210.759 777.893 233.292 728.798C240.99 711.133 250.196 694.058 260.746 677.475C238.249 663.158 215.751 648.842 193.254 634.525C180.648 654.341 169.456 675.033 159.948 696.849C134.438 761.782 111.598 828.9 145.649 914.715C145.702 914.816 145.756 914.918 145.81 915.022C159.097 947.149 192.979 1000.48 238.489 1021.15C283.248 1043.95 329.589 1048.76 373 1049C379.148 1049 385.142 1048.74 391.158 1048.22C500.697 1038.96 565.6 945.355 601.818 869.32C614.002 844.606 625.887 813.457 633.787 797.744C685.317 662.616 720.376 548.532 762.673 423.698C769.472 403.264 776.344 382.583 782.973 362.572Z" fill="black"/>
<path d="M260.906 677.694C266.611 668.75 268.53 657.906 266.239 647.547C263.949 637.189 257.638 628.164 248.694 622.459C239.75 616.754 228.906 614.836 218.547 617.126C208.189 619.416 199.164 625.727 193.459 634.671L227.183 656.183L260.906 677.694Z" fill="black"/>
</g>
<defs>
<clipPath id="clip0_3_38">
<rect width="1080" height="1080" fill="white"/>
</clipPath>
</defs>
</svg>
